<svg width="174" height="23" fill="none" xmlns="http://www.w3.org/2000/svg"><path fill-rule="evenodd" clip-rule="evenodd" d="M120.704 22.445c1.567 0 2.35-.723 2.35-2.168v-7.955l5.962-7.926a2.15 2.15 0 00.429-1.339 2.062 2.062 0 00-.637-1.549 2.518 2.518 0 00-3.572.266l-4.532 6.225-4.532-6.225a2.266 2.266 0 00-1.952-.885 2.189 2.189 0 00-1.613.64 2.07 2.07 0 00-.645 1.526c-.01.483.141.954.431 1.339l5.944 7.926v7.955c0 1.445.789 2.168 2.367 2.168v.002zm15.363-6.007a7.476 7.476 0 01-1.491-4.77 7.57 7.57 0 011.415-4.68 5.373 5.373 0 011.986-1.644 5.317 5.317 0 012.515-.523 5.524 5.524 0 012.581.567c2.221 1.154 3.332 3.248 3.332 6.281a7.672 7.672 0 01-1.414 4.698 5.795 5.795 0 01-1.985 1.577 5.754 5.754 0 01-4.931.04 5.796 5.796 0 01-2.01-1.544l.002-.002zm12.26 2.996a10.727 10.727 0 002.276-3.578c.515-1.334.76-2.758.721-4.189a10.81 10.81 0 00-.725-4.15 10.73 10.73 0 00-2.256-3.546 11.2 11.2 0 00-7.799-3.272 11.192 11.192 0 00-7.856 3.127 10.808 10.808 0 00-2.294 3.612 10.892 10.892 0 00-.718 4.228 10.773 10.773 0 002.92 7.68 11.18 11.18 0 007.848 3.286 11.178 11.178 0 007.883-3.199v.001zm8.436.713a10.37 10.37 0 006.764 2.487 10.367 10.367 0 006.749-2.53 8.092 8.092 0 002.086-2.821 8.145 8.145 0 00.702-3.448V3.203c0-1.541-.789-2.312-2.367-2.312-1.567 0-2.352.77-2.352 2.312v10.399a4.848 4.848 0 01-1.321 3.45 5.028 5.028 0 01-3.516 1.469 5.027 5.027 0 01-3.535-1.426 4.864 4.864 0 01-1.287-3.493V3.203c0-1.541-.789-2.312-2.367-2.312-1.568 0-2.351.77-2.351 2.312v10.631a8.204 8.204 0 00.7 3.472 8.125 8.125 0 002.096 2.841h-.001z" fill="#FFE300"/><path fill-rule="evenodd" clip-rule="evenodd" d="M48.22 20.365a1.88 1.88 0 00.69 1.49 2.453 2.453 0 001.644.59c.497.04.993-.094 1.404-.38.411-.285.712-.705.852-1.188l.953-2.778h8.742l.937 2.807c.149.486.46.905.88 1.186.42.28.923.407 1.425.356a2.267 2.267 0 001.52-.553 1.767 1.767 0 00.646-1.411 3.171 3.171 0 00-.245-1.106L61.49 3.174a3.565 3.565 0 00-1.283-1.79 3.514 3.514 0 00-4.163 0 3.565 3.565 0 00-1.283 1.79l-6.33 16.199a7.207 7.207 0 00-.212.992zm9.936-15.01l2.934 8.64h-5.975l2.98-8.64h.062zm12.56 16.45a2.637 2.637 0 003.442 0 2.256 2.256 0 00.638-1.673V9.023h.06l9.972 12.447c.258.283.572.506.922.655a2.45 2.45 0 001.06.32 2.316 2.316 0 001.728-.64 2.259 2.259 0 00.638-1.673V3.204c0-1.541-.789-2.312-2.367-2.312-1.566 0-2.35.77-2.35 2.312V14.46h-.061L74.412 1.865a2.779 2.779 0 00-.883-.684A2.377 2.377 0 0072.43.89c-1.567 0-2.35.77-2.35 2.312v16.93a2.272 2.272 0 00.637 1.673zm22.68-.145c.5.42 1.138.637 1.79.611h5.468c1.427.072 2.855-.14 4.2-.624a10.862 10.862 0 003.644-2.198 9.89 9.89 0 002.254-3.43 9.976 9.976 0 00.673-4.06 10.831 10.831 0 00-.642-4.255 10.735 10.735 0 00-2.251-3.657c-1.966-1.987-4.696-2.981-8.189-2.981h-5.219a2.465 2.465 0 00-1.767.625 2.184 2.184 0 00-.66 1.673V20.03a2.053 2.053 0 00.7 1.629zm6.89-16.493a5.917 5.917 0 012.577.387c.82.32 1.561.818 2.168 1.46a7.01 7.01 0 011.474 4.74 6.784 6.784 0 01-1.429 4.539 5.526 5.526 0 01-2.03 1.45 5.49 5.49 0 01-2.456.408h-3.18V5.166h2.876z" fill="#fff"/><path fill-rule="evenodd" clip-rule="evenodd" d="M.794 21.645a2.64 2.64 0 001.805.625h6.488a7.854 7.854 0 005.254-1.643 5.915 5.915 0 001.578-2.167c.355-.835.514-1.74.465-2.648a4.69 4.69 0 00-1.351-3.373 5.796 5.796 0 00-3.427-1.703v-.058a4.456 4.456 0 002.165-1.71 4.52 4.52 0 00.755-2.668 4.871 4.871 0 00-.476-2.167c-1.009-2.048-2.824-3.071-5.444-3.071H2.568a2.655 2.655 0 00-1.797.596A2.034 2.034 0 00.079 3.29V20a2.086 2.086 0 00.715 1.644zm6.46-16.653c1.7 0 2.55.708 2.55 2.123a2.205 2.205 0 01-.691 1.716 2.666 2.666 0 01-1.859.626H4.8V4.992h2.454zm.877 8.404c2.233 0 3.35.78 3.35 2.341a2.37 2.37 0 01-.822 1.92 3.24 3.24 0 01-2.144.684H4.796v-4.945h3.335zm10.708 8.246a2.49 2.49 0 001.736.625h8.113a2.315 2.315 0 001.597-.574 1.88 1.88 0 00.645-1.476 1.925 1.925 0 00-.63-1.499 2.32 2.32 0 00-1.613-.567h-5.823v-4.52h5.162a2.435 2.435 0 001.643-.567 1.857 1.857 0 00.662-1.483 1.906 1.906 0 00-.63-1.527 2.492 2.492 0 00-1.674-.538h-5.163v-4.35h5.546a2.277 2.277 0 001.578-.582 1.885 1.885 0 00.645-1.47 1.908 1.908 0 00-.63-1.483 2.298 2.298 0 00-1.593-.57h-7.808c-1.636 0-2.454.864-2.454 2.59v16.38a2.083 2.083 0 00.69 1.614l.001-.003zm20.043.163a2.637 2.637 0 003.441 0 2.258 2.258 0 00.636-1.673V5.166h3.426a2.197 2.197 0 001.578-.546 1.966 1.966 0 00.576-1.504 1.957 1.957 0 00-.607-1.469 2.149 2.149 0 00-1.544-.585H34.815a2.118 2.118 0 00-1.529.596 1.93 1.93 0 00-.623 1.454 1.976 1.976 0 00.584 1.49c.43.389.993.59 1.568.56h3.426v14.97a2.273 2.273 0 00.641 1.673z" fill="#FFBB04"/></svg>