<svg width="84" height="20" fill="none" xmlns="http://www.w3.org/2000/svg"><g clip-path="url(#clip0)"><path d="M13.53 10.973a2.41 2.41 0 001.412-.373 1.357 1.357 0 00.62-1.203 4.373 4.373 0 00-.94-2.7 5.905 5.905 0 00-2.42-1.874 5.855 5.855 0 00-2.285-.433 5.588 5.588 0 00-4.182 1.667 5.576 5.576 0 00-1.638 4.04 5.308 5.308 0 001.712 4 5.966 5.966 0 004.278 1.626 8.853 8.853 0 002.63-.393 4.282 4.282 0 002.182-1.333c.234-.262.37-.596.383-.947 0-.83-.453-1.243-1.368-1.243a6.26 6.26 0 00-1.538.523 5.677 5.677 0 01-2.119.523 3.105 3.105 0 01-1.772-.46 1.904 1.904 0 01-.834-1.42h5.883-.004zm-5.128-3.46a2.304 2.304 0 011.538-.52c.557-.014 1.1.174 1.528.53a1.918 1.918 0 01.698 1.36H7.607a2.363 2.363 0 01.791-1.37h.004zm9.093 6.574c1.054 1.089 2.451 1.634 4.191 1.636a6.345 6.345 0 002.61-.473c.967-.447 1.454-1 1.454-1.637.007-.36-.127-.71-.373-.973a1.272 1.272 0 00-.975-.407 3.054 3.054 0 00-1.027.237c-.427.16-.88.24-1.335.237a2.416 2.416 0 01-1.922-.787 2.838 2.838 0 01-.621-1.893 2.997 2.997 0 01.577-1.874 2.169 2.169 0 011.819-.826c.47-.002.938.081 1.378.246.337.142.696.226 1.061.247a1.42 1.42 0 001.025-.393 1.3 1.3 0 00.407-.967c0-.737-.47-1.287-1.412-1.667a7.034 7.034 0 00-2.46-.393c-1.794 0-3.24.529-4.337 1.587a5.46 5.46 0 00-1.625 4.09 5.482 5.482 0 001.541 4m9.981.03a5.761 5.761 0 004.258 1.666 5.746 5.746 0 004.255-1.666 5.532 5.532 0 001.585-4.04 5.598 5.598 0 00-1.605-4.08c-1.068-1.09-2.483-1.637-4.235-1.637a5.705 5.705 0 00-4.224 1.677 5.541 5.541 0 00-1.636 4.07 5.478 5.478 0 001.602 4.02v-.01zm2.503-5.864a2.052 2.052 0 011.755-.846 2.004 2.004 0 011.732.866c.38.527.575 1.165.557 1.814a3.038 3.038 0 01-.534 1.833 2.032 2.032 0 01-1.755.867 2.004 2.004 0 01-1.732-.867 2.998 2.998 0 01-.557-1.833 3.091 3.091 0 01.534-1.844v.01z" fill="#033564"/><path d="M14.795 0C6.847 0 .416 3.817.416 8.553c0 2 1.165 3.85 3.134 5.334A6.413 6.413 0 012.03 9.87c0-4.903 6.3-8.883 14.056-8.883 5.005 0 9.4 1.643 11.89 4.146C25.746 2.107 20.674 0 14.794 0zm27.61 4.093h1.538c1.627 0 2.44.625 2.44 1.874s-.813 1.886-2.44 1.913h-1.538V4.093zm0 9.217v-2.453h2.396c1.682 0 3.008-.428 3.978-1.284.97-.855 1.454-2.057 1.454-3.606 0-1.556-.534-2.771-1.604-3.647-1.013-.827-2.382-1.24-4.108-1.24h-3.207c-.928 0-1.57.17-1.925.51-.357.34-.534.938-.534 1.793v9.92c0 1.556.591 2.334 1.775 2.334 1.183 0 1.775-.776 1.775-2.327zm12.15-5.017a2.002 2.002 0 011.668-.81 1.967 1.967 0 011.669.81c.353.515.532 1.13.51 1.754.02.63-.158 1.25-.51 1.773a1.944 1.944 0 01-1.669.827 2.005 2.005 0 01-1.701-.827 2.91 2.91 0 01-.534-1.773 2.834 2.834 0 01.553-1.754h.014zm5.66 7.334c1.14 0 1.711-.778 1.711-2.334V6.877c0-1.54-.57-2.31-1.712-2.31a1.837 1.837 0 00-1.645 1 3.588 3.588 0 00-2.78-1.144 4.96 4.96 0 00-3.917 1.774 5.706 5.706 0 00-1.452 3.883 5.746 5.746 0 001.389 3.843 4.856 4.856 0 003.86 1.77 3.694 3.694 0 002.91-1.203 1.707 1.707 0 001.645 1.133l-.01.004zm9.743-9.797l-2.119 5.083-1.959-4.806a3.738 3.738 0 00-.587-1.08 1.542 1.542 0 00-1.175-.454 1.7 1.7 0 00-1.207.454 1.482 1.482 0 00-.48 1.123c-.003.306.062.609.19.887l3.486 7.506-1.424 2.857a2.595 2.595 0 00-.288 1.077 1.419 1.419 0 00.484 1.113c.35.285.791.431 1.242.41.614 0 1.118-.427 1.518-1.28l5.282-11.53c.171-.344.267-.72.28-1.103 0-1-.57-1.517-1.711-1.517-.668 0-1.161.42-1.518 1.26m11.712 6.68H78.27l4.592-5.437c.467-.553.7-1.02.7-1.4a.749.749 0 00-.533-.8 6.036 6.036 0 00-1.648-.166h-5.54c-1.468 0-2.202.479-2.202 1.436 0 .958.727 1.445 2.182 1.46h2.973l-4.748 5.667a1.892 1.892 0 00-.514 1.22c0 .667.604 1 1.819 1h6.31c1.45 0 2.177-.487 2.179-1.46.002-.973-.716-1.472-2.156-1.497" fill="#8CC23C"/></g><defs><clipPath id="clip0"><path fill="#fff" transform="translate(.416)" d="M0 0h83.423v20H0z"/></clipPath></defs></svg>