<svg width="113" height="20" fill="none" xmlns="http://www.w3.org/2000/svg"><path d="M49.148 13.18V9.072c0-1.55-.989-2.594-2.58-2.608a2.54 2.54 0 00-2.305 1.167 2.408 2.408 0 00-2.167-1.167 2.17 2.17 0 00-1.918.975v-.822h-1.427v6.565h1.44V9.545c0-1.14.631-1.742 1.606-1.742.976 0 1.428.616 1.428 1.729v3.649h1.433V9.545c0-1.14.657-1.742 1.605-1.742s1.441.616 1.441 1.729v3.649h1.444zm21.323-6.558H68.14v-1.99h-1.441v1.99h-1.332v1.304H66.7v2.99c0 1.522.589 2.43 2.276 2.43a3.353 3.353 0 001.784-.508l-.411-1.221a2.635 2.635 0 01-1.263.37c-.712 0-.948-.439-.948-1.097V7.926h2.332l.002-1.304zm12.173-.164a1.934 1.934 0 00-1.729.961v-.797h-1.414v6.559h1.428V9.504c0-1.096.466-1.688 1.4-1.688.306-.004.609.052.893.165l.438-1.345a3.05 3.05 0 00-1.016-.178zm-18.403.684a4.904 4.904 0 00-2.676-.684c-1.66 0-2.74.797-2.74 2.098 0 1.071.794 1.729 2.263 1.934l.671.096c.78.11 1.153.315 1.153.685 0 .507-.52.797-1.495.797a3.496 3.496 0 01-2.192-.684l-.65 1.11a4.73 4.73 0 002.841.851c1.894 0 2.992-.893 2.992-2.14 0-1.153-.865-1.756-2.29-1.961l-.671-.096c-.617-.082-1.113-.205-1.113-.644 0-.48.466-.767 1.25-.767.718.01 1.421.204 2.043.562l.614-1.157zm38.225-.684a1.937 1.937 0 00-1.729.961v-.797h-1.414v6.559h1.428V9.504c0-1.096.466-1.688 1.4-1.688.305-.004.609.052.893.165l.438-1.345a3.048 3.048 0 00-1.016-.178zM84.085 9.9c0 1.99 1.386 3.444 3.499 3.444a3.436 3.436 0 002.359-.783l-.685-1.154a2.882 2.882 0 01-1.715.59c-1.14 0-1.976-.84-1.976-2.1 0-1.26.839-2.084 1.976-2.098.62.007 1.221.213 1.715.59l.685-1.154a3.436 3.436 0 00-2.36-.784c-2.112 0-3.498 1.455-3.498 3.444V9.9zm13.364 0V6.614h-1.427v.797a2.487 2.487 0 00-2.071-.962c-1.839 0-3.288 1.441-3.288 3.444s1.441 3.444 3.288 3.444a2.487 2.487 0 002.071-.962v.795h1.427V9.9zm-5.31 0c0-1.153.754-2.098 1.99-2.098 1.18 0 1.975.907 1.975 2.098 0 1.192-.794 2.099-1.975 2.099-1.236 0-1.99-.948-1.99-2.099zm-17.22-3.442c-1.918 0-3.266 1.4-3.266 3.443 0 2.085 1.4 3.444 3.362 3.444a3.986 3.986 0 002.69-.92l-.698-1.058a3.127 3.127 0 01-1.918.685c-.92 0-1.756-.425-1.962-1.605h4.871c.014-.178.028-.357.028-.548 0-2.044-1.277-3.444-3.115-3.444l.008.003zm-.028 1.276c.921 0 1.51.576 1.66 1.592h-3.4c.151-.948.727-1.592 1.743-1.592h-.002zm35.795 2.167V3.986h-1.427v3.43a2.496 2.496 0 00-2.072-.961c-1.838 0-3.287 1.44-3.287 3.444 0 2.002 1.441 3.444 3.287 3.444a2.488 2.488 0 002.072-.962v.794h1.427V9.901zm1.669 2.674a.418.418 0 01.298.124.408.408 0 010 .586.412.412 0 01-.298.123.425.425 0 01-.395-.255.409.409 0 010-.323.418.418 0 01.4-.255h-.005zm0 .74a.31.31 0 00.227-.093.326.326 0 00-.101-.529.316.316 0 00-.126-.024.324.324 0 00-.255.119.327.327 0 00.022.434.323.323 0 00.238.093h-.005zm.024-.52a.175.175 0 01.115.032.123.123 0 01.032.04.11.11 0 01.009.05.106.106 0 01-.007.044.109.109 0 01-.026.036.151.151 0 01-.09.039l.126.145h-.099l-.117-.145h-.039v.145h-.082v-.384l.178-.002zm-.096.07v.105h.096a.094.094 0 00.052 0 .054.054 0 00.015-.017.04.04 0 00.004-.021.04.04 0 00-.004-.022.053.053 0 00-.015-.017.092.092 0 00-.052 0l-.096-.027zm-6.901-2.964c0-1.153.753-2.098 1.989-2.098 1.181 0 1.975.907 1.975 2.098 0 1.192-.794 2.099-1.975 2.099-1.236 0-1.989-.948-1.989-2.099zm-48.192 0V6.614h-1.427v.797a2.489 2.489 0 00-2.063-.953c-1.839 0-3.288 1.44-3.288 3.443s1.441 3.444 3.288 3.444a2.487 2.487 0 002.071-.961v.794h1.427l-.008-3.277zm-5.31 0c0-1.153.754-2.098 1.99-2.098 1.18 0 1.975.907 1.975 2.098 0 1.192-.795 2.099-1.975 2.099-1.236 0-1.99-.945-1.99-2.099z" fill="#fff"/><g clip-path="url(#clip0)"><path d="M20.83 2.23h-9.496v15.51h9.496V2.23z" fill="#FF5F00"/><path d="M12.312 9.986a9.847 9.847 0 013.768-7.753 9.863 9.863 0 100 15.51 9.845 9.845 0 01-3.768-7.757z" fill="#EB001B"/><path d="M32.039 9.986a9.863 9.863 0 01-15.96 7.754 9.863 9.863 0 000-15.51 9.863 9.863 0 0115.96 7.754v.002z" fill="#F79E1B"/></g><defs><clipPath id="clip0"><path fill="#fff" d="M0 0h32.055v20H0z"/></clipPath></defs></svg>