<svg width="64" height="20" fill="none" xmlns="http://www.w3.org/2000/svg"><g clip-path="url(#clip0)"><path d="M27.977 20h-5.066L26.08.356h5.066L27.977 20zM46.342.836C45.343.44 43.758 0 41.798 0c-5.003 0-8.526 2.675-8.547 6.499-.042 2.821 2.522 4.388 4.44 5.33 1.96.96 2.626 1.588 2.626 2.445-.02 1.316-1.584 1.923-3.042 1.923-2.023 0-3.107-.313-4.754-1.045l-.667-.314-.709 4.41c1.189.542 3.378 1.024 5.65 1.045 5.316 0 8.777-2.633 8.818-6.709.02-2.236-1.334-3.95-4.252-5.35-1.772-.898-2.858-1.504-2.858-2.424.021-.836.918-1.693 2.919-1.693 1.646-.041 2.857.355 3.773.753l.459.208.688-4.242zm6.734 12.205c.417-1.129 2.022-5.496 2.022-5.496-.02.042.417-1.15.667-1.881l.354 1.693s.96 4.702 1.168 5.684h-4.211zM59.329.356h-3.918c-1.209 0-2.127.355-2.648 1.63L45.238 20h5.315l1.064-2.947h6.504c.146.69.605 2.947.605 2.947h4.69L59.33.356zm-40.649 0l-4.962 13.396-.542-2.717C12.259 7.9 9.382 4.495 6.172 2.8l4.544 17.178h5.357L24.036.356H18.68z" fill="#00579F"/><path d="M9.111.356H.961L.876.753c6.358 1.63 10.569 5.56 12.299 10.283l-1.772-9.029C11.112.753 10.216.397 9.111.357z" fill="#FAA61A"/></g><defs><clipPath id="clip0"><path fill="#fff" transform="translate(.877)" d="M0 0h62.54v20H0z"/></clipPath></defs></svg>