<svg width="30" height="30" fill="none" xmlns="http://www.w3.org/2000/svg"><path d="M15 0C6.714 0 0 6.714 0 15s6.714 15 15 15 15-6.714 15-15S23.276 0 15 0zm9.206 24.206A12.924 12.924 0 0115 28.022c-3.48 0-6.744-1.354-9.206-3.816A12.941 12.941 0 011.978 15a12.94 12.94 0 013.816-9.206A12.924 12.924 0 0115 1.978c3.48 0 6.744 1.354 9.206 3.816A12.924 12.924 0 0128.022 15c0 3.48-1.364 6.744-3.816 9.206z" fill="#FFBB04"/><path d="M3.075 12.133l.97 1.72 1.69-1.038v7.168h2.482v-9.976H6.229l-3.154 2.126zm13.388 2.699c.97-.455 1.612-1.177 1.612-2.264 0-1.74-1.8-2.73-3.876-2.73-2.017 0-3.846.96-3.846 2.73 0 1.137.672 1.849 1.601 2.264-1.107.455-1.858 1.305-1.858 2.452 0 1.86 1.858 2.878 4.113 2.878 2.254 0 4.143-1 4.143-2.878-.02-1.107-.742-1.958-1.889-2.452zM14.2 11.885c.86 0 1.434.455 1.434 1.029 0 .613-.692 1.028-1.434 1.077-.712-.04-1.404-.454-1.404-1.077-.01-.584.564-1.029 1.404-1.029zm0 6.21c-.96 0-1.612-.435-1.612-1.088 0-.652.811-1.058 1.612-1.107.81.04 1.622.455 1.622 1.107 0 .653-.663 1.088-1.622 1.088zm10.193-3.935v-2.581h-2.076v2.58h-2.531v1.949h2.531v2.6h2.076v-2.6h2.522v-1.949h-2.521z" fill="#FFBB04"/></svg>