<svg width="24" height="24" fill="none" xmlns="http://www.w3.org/2000/svg"><rect opacity=".3" width="24" height="24" rx="6" fill="url(#paint0_linear)"/><path d="M6.148 7.84l5.032 3.817c.228.173.544.238.848.224.306.014.62-.068.85-.243l5.032-3.796c.401-.307.31-.509-.201-.509H6.349c-.512 0-.603.199-.2.506z" fill="url(#paint1_linear)"/><path d="M5.764 8.8C5.354 8.504 5 8.664 5 9.158v6.605c0 .127.05.248.1.358l4.6-4.437L5.765 8.8z" fill="url(#paint2_linear)"/><path d="M18.265 8.8l-3.84 2.814 4.545 4.388a.862.862 0 00.03-.24V9.156c0-.494-.326-.654-.735-.356z" fill="url(#paint3_linear)"/><path d="M12.772 12.827a1.261 1.261 0 01-.742.22 1.274 1.274 0 01-.744-.22l-.936-.685-4.645 4.483a.946.946 0 00.269.042h12.11a.93.93 0 00.387-.087l-4.67-4.505-1.03.752z" fill="url(#paint4_linear)"/><defs><linearGradient id="paint0_linear" x1="0" y1="12" x2="24" y2="12" gradientUnits="userSpaceOnUse"><stop stop-color="#FFBA05"/><stop offset="1" stop-color="#FFE300"/></linearGradient><linearGradient id="paint1_linear" x1="5" y1="12" x2="19" y2="12" gradientUnits="userSpaceOnUse"><stop stop-color="#FFBA05"/><stop offset="1" stop-color="#FFE300"/></linearGradient><linearGradient id="paint2_linear" x1="5" y1="12" x2="19" y2="12" gradientUnits="userSpaceOnUse"><stop stop-color="#FFBA05"/><stop offset="1" stop-color="#FFE300"/></linearGradient><linearGradient id="paint3_linear" x1="5" y1="12" x2="19" y2="12" gradientUnits="userSpaceOnUse"><stop stop-color="#FFBA05"/><stop offset="1" stop-color="#FFE300"/></linearGradient><linearGradient id="paint4_linear" x1="5" y1="12" x2="19" y2="12" gradientUnits="userSpaceOnUse"><stop stop-color="#FFBA05"/><stop offset="1" stop-color="#FFE300"/></linearGradient></defs></svg>