<svg width="24" height="24" fill="none" xmlns="http://www.w3.org/2000/svg"><rect opacity=".3" width="24" height="24" rx="6" fill="url(#paint0_linear)"/><path d="M9.92 13.777l-.208 3.295c.297 0 .425-.144.58-.317l1.39-1.502 2.883 2.384c.53.333.902.158 1.044-.549l1.892-10.013v-.001c.168-.883-.282-1.228-.797-1.011L5.582 10.872c-.759.333-.748.81-.129 1.027l2.843.999 6.605-4.668c.311-.232.594-.103.361.129L9.92 13.777z" fill="url(#paint1_linear)"/><defs><linearGradient id="paint0_linear" x1="0" y1="12" x2="24" y2="12" gradientUnits="userSpaceOnUse"><stop stop-color="#FFBA05"/><stop offset="1" stop-color="#FFE300"/></linearGradient><linearGradient id="paint1_linear" x1="5" y1="11.9" x2="17.538" y2="11.9" gradientUnits="userSpaceOnUse"><stop stop-color="#FFBA05"/><stop offset="1" stop-color="#FFE300"/></linearGradient></defs></svg>